<svg 
 xmlns="http://www.w3.org/2000/svg"
 xmlns:xlink="http://www.w3.org/1999/xlink"
 width="684px" height="148px">
<path fill-rule="evenodd"  fill="rgb(0, 0, 0)"
 d="M660.0,145.234 L643.414,35.651 L627.39,145.234 L603.555,145.234 L611.136,94.722 L627.616,2.350 L659.588,2.350 L675.985,94.557 L683.566,145.234 L660.0,145.234 ZM562.551,145.624 C554.1,145.624 522.120,145.624 522.120,145.624 L522.120,123.791 L552.39,123.791 C552.39,123.791 560.545,125.51 564.169,120.556 C567.260,116.722 566.594,108.427 566.594,108.427 L566.594,2.497 L589.547,2.597 L589.547,117.794 C589.547,117.794 592.594,145.624 562.551,145.624 ZM522.27,2.350 L545.347,2.350 L545.347,104.803 L522.27,104.803 L522.27,2.350 ZM469.290,145.234 L434.847,145.234 L434.847,2.350 L470.773,2.350 C491.483,2.350 501.839,12.376 501.839,32.427 L501.839,115.240 C501.839,135.181 490.989,145.180 469.290,145.234 ZM478.519,32.427 C478.519,25.890 475.141,22.621 468.384,22.621 L458.166,22.621 L458.166,124.881 L468.384,124.881 C475.141,124.881 478.519,121.667 478.519,115.240 L478.519,32.427 ZM368.843,64.975 L368.843,145.234 L346.430,145.234 L346.430,2.350 L369.750,2.350 L391.833,85.246 L391.833,2.350 L413.422,2.350 L413.422,145.234 L390.103,145.234 L368.843,64.975 ZM287.618,2.497 L308.443,2.350 L324.841,94.557 L332.422,145.234 L308.855,145.234 L287.618,2.497 ZM252.410,145.234 L259.991,94.722 L276.298,2.497 L285.999,76.999 L275.895,145.234 L252.410,145.234 ZM208.326,145.234 L173.882,145.234 L173.882,2.350 L209.809,2.350 C230.519,2.350 240.874,12.376 240.874,32.427 L240.874,53.851 C240.874,63.245 236.616,69.892 228.102,73.792 C236.616,77.693 240.874,84.312 240.874,93.651 L240.874,115.240 C240.874,135.181 230.24,145.180 208.326,145.234 ZM217.555,32.427 C217.555,25.890 214.176,22.621 207.419,22.621 L197.202,22.621 L197.202,63.574 L204.535,63.574 C207.776,63.574 210.1,63.382 211.210,62.997 C215.439,61.514 217.555,58.465 217.555,53.851 L217.555,32.427 ZM217.555,93.651 C217.555,89.92 215.439,86.98 211.210,84.669 C210.1,84.230 207.776,84.10 204.535,84.10 L197.202,84.10 L197.202,124.881 L207.419,124.881 C214.176,124.881 217.555,121.667 217.555,115.240 L217.555,93.651 ZM115.381,2.497 L137.214,2.497 L159.874,145.234 L136.307,145.234 L115.381,2.497 ZM79.862,145.234 L87.443,94.722 L104.60,2.497 L113.999,75.999 L103.347,145.234 L79.862,145.234 ZM34.47,147.871 C11.688,147.815 0.510,137.791 0.510,117.794 L0.510,98.595 L23.830,98.595 L23.830,117.794 C23.830,124.222 27.235,127.435 34.47,127.435 C40.804,127.435 44.183,124.222 44.183,117.794 L44.183,101.479 C44.183,94.557 36.903,86.482 22.346,77.253 C7.788,68.79 0.510,56.928 0.510,43.798 L0.510,30.367 C0.510,10.372 11.661,0.373 33.965,0.373 C56.323,0.373 67.502,10.372 67.502,30.367 L67.502,49.566 L44.183,49.566 L44.183,30.367 C44.183,23.939 40.804,20.726 34.47,20.726 L33.883,20.726 C27.180,20.726 23.830,23.939 23.830,30.367 L23.830,43.304 C23.830,49.677 31.108,57.477 45.666,66.706 C60.223,75.880 67.502,86.894 67.502,99.748 L67.502,117.794 C67.502,137.846 56.350,147.871 34.47,147.871 Z"/>
</svg>